<?xml version="1.0" encoding="UTF-8"?>
<svg version="1.1" xmlns="http://www.w3.org/2000/svg" width="1536" height="1024">
<path d="M0 0 C506.88 0 1013.76 0 1536 0 C1536 337.92 1536 675.84 1536 1024 C1029.12 1024 522.24 1024 0 1024 C0 686.08 0 348.16 0 0 Z " fill="#FDFDFD" transform="translate(0,0)"/>
<path d="M0 0 C3.22444254 1.07481418 3.83274667 1.67572058 5.9375 4.1875 C6.55109375 4.91066406 7.1646875 5.63382813 7.796875 6.37890625 C8.52390625 7.24386719 9.2509375 8.10882812 10 9 C11.38668619 10.62109228 12.77736659 12.23871147 14.16796875 13.85644531 C17.28647086 17.486013 20.39513783 21.12401812 23.50585938 24.76025391 C29.68919621 31.98707989 35.89450395 39.19387768 42.12890625 46.37670898 C47.30765044 52.34673666 52.45203578 58.34588452 57.58935547 64.3515625 C60.05769042 67.23598576 62.52894218 70.11790939 65 73 C63.57952303 76.53684181 62.12001392 77.83804259 58.79296875 79.63671875 C57.9117334 80.12237305 57.03049805 80.60802734 56.12255859 81.10839844 C54.66970459 81.89005371 54.66970459 81.89005371 53.1875 82.6875 C51.07815582 83.85056198 48.97014368 85.01604214 46.86328125 86.18359375 C45.18419678 87.11147705 45.18419678 87.11147705 43.47119141 88.05810547 C37.55460217 91.36803308 31.71602286 94.80924666 25.875 98.25 C24.64915085 98.9708091 23.42323894 99.69151148 22.19726562 100.41210938 C19.71227466 101.87309189 17.22779827 103.33494444 14.74365234 104.79736328 C8.56282438 108.43517136 2.37491611 112.06091331 -3.8125 115.6875 C-4.41481445 116.04060242 -5.01712891 116.39370483 -5.63769531 116.75750732 C-21.69573129 126.17130417 -37.76626273 135.56310584 -53.88745117 144.8684082 C-61.2221422 149.11092352 -68.51189179 153.42900207 -75.79345703 157.76196289 C-77.11579346 158.5468811 -77.11579346 158.5468811 -78.46484375 159.34765625 C-79.244646 159.81179932 -80.02444824 160.27594238 -80.82788086 160.75415039 C-82.85324405 161.91582605 -84.90049468 162.97966012 -87 164 C-82.77346544 129.35899124 -77.71014996 95.64976661 -55 68 C-54.22624023 67.04891357 -53.45248047 66.09782715 -52.65527344 65.11791992 C-45.41442907 56.32371049 -37.51356332 48.36511703 -29.33398438 40.45043945 C-23.14855545 34.44944679 -17.26038973 28.3723748 -11.9140625 21.6015625 C-11.4698999 21.0404628 -11.0257373 20.4793631 -10.56811523 19.90126038 C-5.92207762 13.85938259 -2.41196199 7.23588596 0 0 Z " fill="#21465E" transform="translate(479,507)"/>
<path d="M0 0 C5.62268188 5.62268188 5.62268188 5.62268188 7.61328125 8.19921875 C8.0520459 8.76302246 8.49081055 9.32682617 8.94287109 9.90771484 C9.39484863 10.49504395 9.84682617 11.08237305 10.3125 11.6875 C11.29004921 12.94425579 12.26791512 14.2007653 13.24609375 15.45703125 C13.71901855 16.06627441 14.19194336 16.67551758 14.67919922 17.30322266 C18.67179502 22.43234295 22.7511009 27.49283293 26.890625 32.50390625 C57.01761682 69.07046729 57.01761682 69.07046729 61 85 C67.93 85.33 74.86 85.66 82 86 C78.22025747 89.77974253 76.87265409 90.72142644 72.0625 92.25 C70.53302734 92.75273437 70.53302734 92.75273437 68.97265625 93.265625 C66.15603665 93.96145218 63.87847304 94.05708966 61 94 C61.00222061 94.82463242 61.00444122 95.64926483 61.00672913 96.49888611 C61.02673052 104.25398257 61.04197335 112.00906661 61.05181217 119.76418209 C61.05704036 123.751572 61.06413684 127.73894067 61.07543945 131.72631836 C61.08627061 135.57125114 61.09227732 139.41616345 61.09487724 143.26111031 C61.09673108 144.73118983 61.10035091 146.20126818 61.10573006 147.67133904 C61.11294355 149.72354467 61.11399081 151.77566467 61.11352539 153.82788086 C61.115746 154.99814316 61.11796661 156.16840546 61.12025452 157.37413025 C61 160 61 160 60 161 C57.83853054 161.38461442 55.67002045 161.72949889 53.5 162.0625 C42.77789021 163.80669741 32.27418284 166.54641245 21.75390625 169.21899414 C20.36849639 169.56529416 18.98307997 169.91156795 17.59765625 170.2578125 C16.37570557 170.5686377 15.15375488 170.87946289 13.89477539 171.19970703 C9.32004664 172.13971586 4.64712833 172.53528717 0 173 C0 115.91 0 58.82 0 0 Z " fill="#1E435A" transform="translate(228,402)"/>
<path d="M0 0 C4.09067902 1.25024136 7.60004648 2.75657669 11.2734375 4.94140625 C12.25489746 5.52043701 13.23635742 6.09946777 14.24755859 6.69604492 C15.27961426 7.3119751 16.31166992 7.92790527 17.375 8.5625 C19.54105786 9.8421769 21.70772522 11.12082267 23.875 12.3984375 C24.926875 13.01944336 25.97875 13.64044922 27.0625 14.28027344 C30.80389023 16.47062855 34.58200316 18.58826822 38.375 20.6875 C44.65911264 24.18055863 50.7843158 27.89993581 56.89941406 31.6796875 C66.12853591 37.35669377 75.56542794 42.67394141 85 48 C85 52 85 52 83.47460938 53.99536133 C82.77142578 54.6839624 82.06824219 55.37256348 81.34375 56.08203125 C80.56773437 56.84966797 79.79171875 57.61730469 78.9921875 58.40820312 C77.75855469 59.59833008 77.75855469 59.59833008 76.5 60.8125 C75.70851563 61.59431641 74.91703125 62.37613281 74.1015625 63.18164062 C70.49073795 66.72439226 66.84249527 70.17248879 62.98828125 73.44921875 C59.92348457 76.08540189 57.18033818 78.89452747 54.44921875 81.875 C53.66740234 82.71417969 52.88558594 83.55335938 52.08007812 84.41796875 C50.47473194 86.15043215 48.89143472 87.90357037 47.33007812 89.67578125 C41.58319211 95.73853384 41.58319211 95.73853384 37.20751953 96.46118164 C31.40448258 96.1020409 26.4718692 94.36805368 21.5 91.4375 C20.86328369 91.08107422 20.22656738 90.72464844 19.57055664 90.35742188 C14.734824 87.58962922 10.28377326 84.40562194 5.8515625 81.03125 C0.51523895 77.23003322 -5.26256787 74.14930581 -11 71 C-11 70.34 -11 69.68 -11 69 C-9.90300781 68.48050781 -8.80601562 67.96101563 -7.67578125 67.42578125 C-6.22109057 66.72189866 -4.76667807 66.01744098 -3.3125 65.3125 C-2.59126953 64.97283203 -1.87003906 64.63316406 -1.12695312 64.28320312 C3.45694891 62.04357976 6.50926284 59.69797944 10 56 C10.66 56 11.32 56 12 56 C12.24492187 55.47921875 12.48984375 54.9584375 12.7421875 54.421875 C14.38061187 51.26714486 16.24881638 48.26647897 18.125 45.25 C18.49753906 44.64800781 18.87007813 44.04601562 19.25390625 43.42578125 C20.16774724 41.94957657 21.08366598 40.47465846 22 39 C20.87407755 39.97810582 19.74934767 40.95758435 18.625 41.9375 C17.89023437 42.57558594 17.15546875 43.21367187 16.3984375 43.87109375 C14.79537566 45.29400694 13.21691388 46.74511038 11.6640625 48.22265625 C-0.09060144 59.31160297 -16.35032212 68 -33 68 C-32.59234345 61.70745523 -29.47286994 56.98389351 -26.4375 51.625 C-20.81912217 41.49786997 -15.52670592 31.24527678 -10.375 20.875 C-10.02807098 20.1772345 -9.68114197 19.47946899 -9.32369995 18.76055908 C-7.74698098 15.58785579 -6.17345952 12.41361481 -4.60302734 9.23779297 C-3.0765221 6.15455925 -1.54070136 3.07616026 0 0 Z " fill="#A2CEE7" transform="translate(390,305)"/>
<path d="M0 0 C0.66 0 1.32 0 2 0 C2 57.09 2 114.18 2 173 C1.34 173 0.68 173 0 173 C-1.31695601 171.25592312 -2.62531644 169.50507727 -3.90625 167.734375 C-6.5685739 164.25745945 -9.42788655 160.98059458 -12.3125 157.6875 C-16.18159691 153.26606519 -19.99885868 148.82470285 -23.6875 144.25 C-27.46442999 139.58234977 -31.46590065 135.16667583 -35.53125 130.75 C-37.94378104 128.06262366 -40.2325621 125.31034556 -42.5 122.5 C-45.6360113 118.6133477 -48.87910051 114.87255137 -52.25 111.1875 C-53.07757813 110.28128906 -53.90515625 109.37507813 -54.7578125 108.44140625 C-56.07776781 107.00417268 -57.40346355 105.57211153 -58.7421875 104.15234375 C-60.71510769 101.97321439 -61.93717885 100.55944248 -62.27075195 97.58886719 C-61.96247017 94.64114846 -61.25792862 93.34376334 -59.54296875 90.953125 C-59.01292236 90.1993457 -58.48287598 89.44556641 -57.93676758 88.66894531 C-57.35950928 87.87069336 -56.78225098 87.07244141 -56.1875 86.25 C-54.98512124 84.54297382 -53.78463411 82.83461384 -52.5859375 81.125 C-51.98104492 80.26648438 -51.37615234 79.40796875 -50.75292969 78.5234375 C-48.18225796 74.82281591 -45.73971506 71.0456811 -43.3125 67.25 C-40.08368873 62.22064893 -36.82966178 57.21318816 -33.5 52.25 C-28.38578539 44.61735702 -23.34912126 36.93393974 -18.3125 29.25 C-17.90467285 28.62838989 -17.4968457 28.00677979 -17.07666016 27.36633301 C-7.91169168 14.03944529 -7.91169168 14.03944529 0 0 Z " fill="#92C6E5" transform="translate(547,402)"/>
<path d="M0 0 C0.99 0.495 0.99 0.495 2 1 C1.57589844 1.59425781 1.15179687 2.18851562 0.71484375 2.80078125 C-2.35563938 7.13994752 -5.35554695 11.50096129 -8.1875 16 C-11.1742509 20.74056047 -14.25671182 25.40812203 -17.375 30.0625 C-22.47091943 37.67319299 -27.49575125 45.32878055 -32.5 53 C-38.8838672 62.78438506 -45.29473765 72.54991499 -51.82666016 82.23632812 C-52.61256325 83.41763565 -53.38305307 84.60933539 -54.13818359 85.81054688 C-55.04364021 87.23894323 -56.01559474 88.62482215 -57 90 C-57.66 90 -58.32 90 -59 90 C-59.97872278 88.86769303 -60.90718137 87.69181187 -61.8125 86.5 C-74.7300284 71.59515954 -98.01101988 65.57835962 -116.09033203 59.40869141 C-135.17376692 52.87081187 -135.17376692 52.87081187 -142 47 C-141.76733398 44.65405273 -141.76733398 44.65405273 -141 42 C-139.15258789 40.60961914 -139.15258789 40.60961914 -136.72265625 39.53515625 C-135.82474365 39.13039063 -134.92683105 38.725625 -134.00170898 38.30859375 C-132.54680054 37.69177734 -132.54680054 37.69177734 -131.0625 37.0625 C-130.07644775 36.629375 -129.09039551 36.19625 -128.07446289 35.75 C-120.40465534 32.44346349 -112.62403364 29.63631043 -104.65234375 27.15625 C-101.16819335 26.12825664 -101.16819335 26.12825664 -98.61328125 24.9375 C-94.59709008 23.49671393 -90.46642573 23.06759577 -86.25 22.5 C-81.30643448 21.82249328 -76.41404231 21.13958031 -71.5546875 19.9921875 C-66.37430206 18.79057521 -61.15209839 18.2327917 -55.875 17.625 C-46.601147 16.48679479 -37.94888104 14.73035598 -29 12 C-28.14019531 11.77699219 -27.28039062 11.55398438 -26.39453125 11.32421875 C-17.77435581 9.03206769 -9.47833301 5.01584999 -1.6796875 0.72265625 C-0.84824219 0.36494141 -0.84824219 0.36494141 0 0 Z " fill="#325D7B" transform="translate(536,405)"/>
<path d="M0 0 C0.66 0.33 1.32 0.66 2 1 C1.34 2.32 0.68 3.64 0 5 C0.84481934 5.43231934 1.68963867 5.86463867 2.56005859 6.31005859 C21.43011323 15.9737847 40.18778226 25.72860952 58.43359375 36.5390625 C60.81180809 37.89287097 63.21126912 39.08831144 65.6875 40.25 C69 42 69 42 70 45 C69.37157955 47.23238885 68.64421007 49.43712704 67.875 51.625 C64.11431502 62.80939217 62.15359677 74.4218206 60 86 C59.34 86 58.68 86 58 86 C58.01160156 86.84304688 58.02320313 87.68609375 58.03515625 88.5546875 C58.04417969 89.65039062 58.05320312 90.74609375 58.0625 91.875 C58.07410156 92.96554687 58.08570313 94.05609375 58.09765625 95.1796875 C58 98 58 98 57 100 C56.77049681 102.204364 56.58924067 104.41392173 56.4375 106.625 C56.35371094 107.81351563 56.26992188 109.00203125 56.18359375 110.2265625 C56.09271484 111.59941406 56.09271484 111.59941406 56 113 C51.24119748 112.44495802 47.69190886 110.26716922 43.6875 107.8125 C42.17367116 106.90282312 40.65931666 105.99402062 39.14453125 105.0859375 C38.3242041 104.5919043 37.50387695 104.09787109 36.65869141 103.58886719 C30.80326889 100.08959357 24.88994467 96.68807187 18.9909668 93.26293945 C17.1056371 92.16531271 15.22989354 91.05101658 13.36521912 89.9186554 C10.95758937 88.54596267 8.69520488 87.39370084 6.17904663 86.28341675 C0.49776535 83.61560392 -4.10485106 81.4341594 -6.35122681 75.32563782 C-7.0075151 70.83677185 -6.82346857 66.37388298 -6.640625 61.85546875 C-6.62531154 60.19643957 -6.61595031 58.53734583 -6.61224365 56.87825012 C-6.58932273 53.41540039 -6.51763771 49.95843121 -6.40625 46.49731445 C-6.26426677 42.06355617 -6.21013747 37.63438918 -6.18783951 33.19857311 C-6.16705595 29.77948752 -6.11797167 26.3613263 -6.05846405 22.94271278 C-6.03001792 21.30772543 -6.00620217 19.67265064 -5.98712921 18.03752708 C-5.95271345 15.75544606 -5.88456492 13.476968 -5.80566406 11.19604492 C-5.77152405 9.89970627 -5.73738403 8.60336761 -5.70220947 7.26774597 C-5 4 -5 4 -2.449646 1.55024719 C-1.23707123 0.78287483 -1.23707123 0.78287483 0 0 Z " fill="#8FC6E4" transform="translate(330,558)"/>
<path d="M0 0 C11.42761761 4.57104704 22.49874443 9.9312204 31.29296875 18.6484375 C36.87336373 23.49605334 43.5167892 26.95355795 49.85693359 30.71289062 C71.22701312 43.54759776 71.22701312 43.54759776 74 51 C74.64812163 56.51452637 73.08437154 60.49052767 69.875 64.9375 C64.28232659 71.37906134 57.24406869 75.64442377 50 80 C49.40880371 80.35835937 48.81760742 80.71671875 48.20849609 81.0859375 C40.97857176 85.43328957 33.55135957 89.27045247 25.98754883 92.98950195 C14.43579125 98.66534926 14.43579125 98.66534926 3.734375 105.73046875 C2 107 2 107 0 107 C0 102.38 0 97.76 0 93 C-1.77375 92.608125 -3.5475 92.21625 -5.375 91.8125 C-11.40833169 90.32208077 -16.59337338 88.02627552 -22 85 C-22 84.34 -22 83.68 -22 83 C-16 82 -16 82 0 82 C0 54.94 0 27.88 0 0 Z " fill="#33607E" transform="translate(325,446)"/>
<path d="M0 0 C8.71923652 5.11624622 14.16382525 12.45177861 17.3046875 22.01953125 C19.8207386 32.80462668 18.03614511 44.0256249 12.4921875 53.60546875 C8.53863435 59.09447162 3.8995671 62.76507071 -2 66 C-2.6909375 66.41378906 -3.381875 66.82757813 -4.09375 67.25390625 C-13.34096764 71.92635601 -25.70517641 71.41701656 -35.609375 69.1875 C-44.88822673 65.72595946 -53.17098112 58.84329431 -58.0390625 50.16015625 C-63.01546051 38.97337536 -63.37188834 28.41640275 -59 17 C-53.58147525 6.39927245 -45.1137525 0.23145121 -34.29296875 -4.078125 C-22.82979113 -7.28727081 -10.38966388 -5.55385417 0 0 Z " fill="#23465D" transform="translate(749,425)"/>
<path d="M0 0 C11.01375 -0.1546875 11.01375 -0.1546875 22.25 -0.3125 C25.68841309 -0.38078003 25.68841309 -0.38078003 29.19628906 -0.45043945 C51.62845787 -0.71155681 51.62845787 -0.71155681 60.05761719 6.84448242 C64.62552266 11.65939417 65.35969088 16.2626516 65.28515625 22.7578125 C64.84091684 26.25087304 63.19594934 28.31606192 61 31 C60.2575 31.94875 59.515 32.8975 58.75 33.875 C58.1725 34.57625 57.595 35.2775 57 36 C57.721875 36.20625 58.44375 36.4125 59.1875 36.625 C63.34528718 38.65769595 65.91410244 41.82820488 68 46 C69.19785678 59.1935368 69.19785678 59.1935368 66.125 64.0625 C60.95228016 69.8671146 53.5276709 72.30646017 46 73 C42.41713377 73.12788469 38.83866721 73.11681158 35.25390625 73.09765625 C34.35667847 73.09664917 33.45945068 73.09564209 32.53503418 73.09460449 C29.21084296 73.08940627 25.88667008 73.07544521 22.5625 73.0625 C15.116875 73.041875 7.67125 73.02125 0 73 C0 48.91 0 24.82 0 0 Z " fill="#22455C" transform="translate(1140,421)"/>
<path d="M0 0 C3.22444254 1.07481418 3.83274667 1.67572058 5.9375 4.1875 C6.55109375 4.91066406 7.1646875 5.63382813 7.796875 6.37890625 C8.88742187 7.67634766 8.88742187 7.67634766 10 9 C11.38668619 10.62109228 12.77736659 12.23871147 14.16796875 13.85644531 C17.28647086 17.486013 20.39513783 21.12401812 23.50585938 24.76025391 C29.68919621 31.98707989 35.89450395 39.19387768 42.12890625 46.37670898 C47.30765044 52.34673666 52.45203578 58.34588452 57.58935547 64.3515625 C60.05769042 67.23598576 62.52894218 70.11790939 65 73 C63.57952303 76.53684181 62.12001392 77.83804259 58.79296875 79.63671875 C57.91060547 80.12301758 57.02824219 80.60931641 56.11914062 81.11035156 C55.15169922 81.63081055 54.18425781 82.15126953 53.1875 82.6875 C51.0963612 83.84010146 49.00658255 84.99517308 46.91796875 86.15234375 C45.80083496 86.76964355 44.68370117 87.38694336 43.53271484 88.02294922 C37.295576 91.49494852 31.15230781 95.13061985 25 98.75 C23.75448718 99.48130174 22.5089632 100.21258448 21.26342773 100.94384766 C13.59532005 105.45044206 5.95444799 110.00011177 -1.640625 114.62890625 C-4 116 -4 116 -5 116 C-5.20199036 99.54866187 -5.21547955 83.25358869 -3.78173828 66.8503418 C-2.58380446 51.86564243 -2.58339366 36.82006976 -2.42993164 21.79516602 C-2.40123162 19.67724573 -2.37250554 17.55932579 -2.34375 15.44140625 C-2.33854843 14.46240356 -2.33334686 13.48340088 -2.32798767 12.47473145 C-2.26028836 7.90119956 -2.19361463 4.14148751 0 0 Z " fill="#34607F" transform="translate(479,507)"/>
<path d="M0 0 C3.39002721 1.29108191 6.52160831 2.75781541 9.67578125 4.546875 C10.57482178 5.05549072 11.4738623 5.56410645 12.40014648 6.08813477 C13.36122314 6.63655029 14.3222998 7.18496582 15.3125 7.75 C16.31418213 8.318396 17.31586426 8.88679199 18.34790039 9.47241211 C26.91859083 14.34969996 35.43782424 19.31467058 43.92895508 24.32910156 C49.20159408 27.42932472 54.49143308 30.34001904 60 33 C58.82432041 36.52703877 58.29235256 36.68378704 55.1328125 38.33984375 C54.33504395 38.76120605 53.53727539 39.18256836 52.71533203 39.61669922 C51.86052246 40.05256348 51.00571289 40.48842773 50.125 40.9375 C49.25601074 41.38625488 48.38702148 41.83500977 47.49169922 42.29736328 C41.46152904 45.36589735 35.47831131 48.01943193 29 50 C27.9790625 50.33386719 26.958125 50.66773438 25.90625 51.01171875 C15.23211586 54.42998313 4.85314657 56.92347561 -6.3125 57.875 C-28.53921635 59.82923097 -50.60153189 65.56396168 -71.2734375 73.921875 C-74.15086763 75.05965539 -77.05736092 76.04516136 -80 77 C-73.15874592 68.67955585 -65.54202376 61.06952033 -57.359375 54.0703125 C-49.21622463 46.92483287 -41.3399189 39.43931535 -33.74609375 31.71484375 C-31.93388581 29.93506907 -30.05305443 28.2781635 -28.125 26.625 C-24.01779234 23.09763342 -20.25615995 19.27157295 -16.453125 15.421875 C-13.6801709 12.68424516 -10.78735683 10.13765697 -7.828125 7.60546875 C-5.0846069 5.19609709 -2.54914918 2.61287791 0 0 Z " fill="#9EBAA0" transform="translate(483,359)"/>
<path d="M0 0 C4.95 0 9.9 0 15 0 C18.16676878 3.17020718 19.30940178 4.74149065 21.0625 8.625 C22.01200515 10.4504852 22.96664651 12.27330588 23.92578125 14.09375 C24.41256348 15.05410156 24.8993457 16.01445312 25.40087891 17.00390625 C28.19767737 22.24395369 31.49643034 27.16056173 34.75 32.125 C35.95808108 33.97855005 37.16161952 35.8350734 38.359375 37.6953125 C38.86952148 38.47922363 39.37966797 39.26313477 39.90527344 40.07080078 C41 42 41 42 41 44 C41.66 44 42.32 44 43 44 C43.37898437 42.97519531 43.37898437 42.97519531 43.765625 41.9296875 C45.82972495 37.03071611 48.52850657 32.50215988 51.1953125 27.9140625 C53.30851832 24.27642743 55.25658899 20.57728013 57.1796875 16.8359375 C58.32630851 14.72297159 59.47473903 12.61098659 60.625 10.5 C61.1312793 9.46633301 61.63755859 8.43266602 62.15917969 7.36767578 C63.7890625 4.46875 63.7890625 4.46875 68 0 C72.95 0 77.9 0 83 0 C83 24.09 83 48.18 83 73 C77.72 73 72.44 73 67 73 C66.505 52.21 66.505 52.21 66 31 C63.03 36.28 60.06 41.56 57 47 C55.36870485 49.76241823 53.73673454 52.51489535 52.0625 55.25 C49.90738255 58.7833468 47.85377406 62.29245188 46 66 C43.03 66 40.06 66 37 66 C36.70609375 65.42636719 36.4121875 64.85273438 36.109375 64.26171875 C32.15797326 56.77903557 27.70598417 49.67170212 23.13964844 42.55151367 C22.6346582 41.76236572 22.12966797 40.97321777 21.609375 40.16015625 C21.15530273 39.45511963 20.70123047 38.75008301 20.23339844 38.02368164 C19.04738531 36.0777468 18.01914568 34.03829135 17 32 C16.67 45.53 16.34 59.06 16 73 C10.72 73 5.44 73 0 73 C0 48.91 0 24.82 0 0 Z " fill="#20445B" transform="translate(780,421)"/>
<path d="M0 0 C0.72179443 0.39469482 1.44358887 0.78938965 2.18725586 1.19604492 C8.64802585 4.80759936 14.80574047 8.8688229 20.88427734 13.08691406 C27.27790646 17.50250957 33.64991756 21.00747527 41.125 23.25 C41.125 23.91 41.125 24.57 41.125 25.25 C40.0834375 25.54132813 39.041875 25.83265625 37.96875 26.1328125 C29.8415994 28.44337921 21.88546714 30.97045317 14.00561523 34.02246094 C9.60910028 35.71945626 5.18522294 37.20966585 0.6875 38.625 C-20.18968334 45.46878588 -20.18968334 45.46878588 -34.9375 60.75 C-35.246875 61.575 -35.55625 62.4 -35.875 63.25 C-40.48599561 62.70498551 -43.74586125 60.65216807 -47.5625 58.1875 C-55.93700106 52.94879259 -64.78560025 49.07108787 -73.875 45.25 C-73.875 44.59 -73.875 43.93 -73.875 43.25 C-66.945 43.25 -60.015 43.25 -52.875 43.25 C-52.545 41.6 -52.215 39.95 -51.875 38.25 C-50.91040039 35.99267578 -50.91040039 35.99267578 -49.72265625 33.6953125 C-49.28091064 32.83993896 -48.83916504 31.98456543 -48.3840332 31.10327148 C-44.35666403 23.50734735 -40.31599278 15.93840732 -35.6875 8.6875 C-35.32084229 8.08760254 -34.95418457 7.48770508 -34.57641602 6.86962891 C-26.99867898 -4.54407927 -11.23449233 -6.37996592 0 0 Z " fill="#77A3A4" transform="translate(379.875,383.75)"/>
<path d="M0 0 C5.94 0 11.88 0 18 0 C22.99942471 9.85784 27.71279631 19.79762557 32.25 29.875 C33.5575762 32.76999158 34.86670915 35.66427836 36.17578125 38.55859375 C36.65973106 39.6297216 36.65973106 39.6297216 37.15345764 40.7224884 C39.22120098 45.29468335 41.31107378 49.8558643 43.41796875 54.41015625 C43.93133789 55.52084473 44.44470703 56.6315332 44.97363281 57.77587891 C45.9296777 59.84071903 46.8885394 61.90425791 47.85058594 63.96630859 C48.26985352 64.8733252 48.68912109 65.7803418 49.12109375 66.71484375 C49.66914673 67.89228149 49.66914673 67.89228149 50.22827148 69.09350586 C51 71 51 71 51 73 C44.73 73 38.46 73 32 73 C30.02 68.05 28.04 63.1 26 58 C14.78 58 3.56 58 -8 58 C-9.98 62.95 -11.96 67.9 -14 73 C-20.27 73 -26.54 73 -33 73 C-31.75137008 69.87842521 -30.50057638 66.82477984 -29.1171875 63.76953125 C-28.75866699 62.97571045 -28.40014648 62.18188965 -28.03076172 61.36401367 C-27.64936035 60.52201416 -27.26795898 59.68001465 -26.875 58.8125 C-23.84934057 52.11527448 -20.84671014 45.40882419 -17.875 38.6875 C-14.63713569 31.37860875 -11.29513173 24.12484161 -7.88964844 16.89257812 C-6.27274596 13.45288878 -4.66867277 10.00720873 -3.0625 6.5625 C-1.5465625 3.3140625 -1.5465625 3.3140625 0 0 Z " fill="#22455C" transform="translate(904,421)"/>
<path d="M0 0 C1.87939453 -0.34057617 1.87939453 -0.34057617 4.1328125 -0.29296875 C4.93847656 -0.28330078 5.74414062 -0.27363281 6.57421875 -0.26367188 C7.83685547 -0.2259668 7.83685547 -0.2259668 9.125 -0.1875 C9.97449219 -0.17396484 10.82398438 -0.16042969 11.69921875 -0.14648438 C13.79974837 -0.11108219 15.89995293 -0.05727401 18 0 C18.62491333 1.37043457 18.62491333 1.37043457 19.26245117 2.76855469 C21.23630002 7.09623629 23.211604 11.42325273 25.1875 15.75 C25.54637299 16.53588501 25.90524597 17.32177002 26.2749939 18.13146973 C31.77750302 30.17726693 37.321233 42.20289786 42.92456055 54.20214844 C44.29037299 57.13145963 45.64920923 60.06373562 47 63 C47.33563965 63.72767578 47.6712793 64.45535156 48.01708984 65.20507812 C49.27148076 68.00754963 50 69.88771186 50 73 C44.06 73 38.12 73 32 73 C29.69 68.05 27.38 63.1 25 58 C14.11 58 3.22 58 -8 58 C-9.98 62.95 -11.96 67.9 -14 73 C-19.94 73 -25.88 73 -32 73 C-31.0553817 68.27690851 -29.54297039 64.3642897 -27.578125 60.0234375 C-27.2362616 59.25754303 -26.89439819 58.49164856 -26.54217529 57.70254517 C-25.44956549 55.25785637 -24.3498729 52.81642839 -23.25 50.375 C-22.52557952 48.75671722 -21.80161671 47.13822948 -21.078125 45.51953125 C-17.77389064 38.13460024 -14.44172177 30.76275149 -11.08642578 23.40087891 C-8.94144404 18.66071028 -6.85750072 13.89307132 -4.77539062 9.125 C-4.44345703 8.3721875 -4.11152344 7.619375 -3.76953125 6.84375 C-3.33024292 5.84118164 -3.33024292 5.84118164 -2.88208008 4.81835938 C-2 3 -2 3 0 0 Z " fill="#22465D" transform="translate(1083,421)"/>
<path d="M0 0 C5.61 0 11.22 0 17 0 C17.01458252 1.38711182 17.02916504 2.77422363 17.04418945 4.20336914 C17.10232298 9.36785178 17.17955543 14.53190529 17.26245117 19.69604492 C17.29562968 21.92774471 17.32368348 24.15952698 17.34643555 26.39135742 C17.38011126 29.60631334 17.43243485 32.8205182 17.48828125 36.03515625 C17.49467117 37.02709488 17.5010611 38.01903351 17.50764465 39.04103088 C17.64402336 45.52056344 18.32564794 50.65705992 22.5 55.875 C27.06693863 59.30020397 33.60933275 58.39217817 39 58 C42.53135693 56.82288102 44.23228012 55.89981813 46.62036133 53.10083008 C48.7345553 48.3490379 48.48092392 43.7206447 48.51171875 38.57421875 C48.52966995 37.47149124 48.54762115 36.36876373 48.56611633 35.23262024 C48.62021004 31.71761881 48.6541129 28.20275313 48.6875 24.6875 C48.7206738 22.30141341 48.75516352 19.91534473 48.79101562 17.52929688 C48.87593641 11.68629585 48.94275271 5.84333504 49 0 C54.94 0 60.88 0 67 0 C67.04967128 6.52871611 67.08584775 13.05732065 67.10986328 19.58618164 C67.11988174 21.80430011 67.13350026 24.0224055 67.15087891 26.24047852 C67.17531051 29.44029989 67.18652496 32.63994567 67.1953125 35.83984375 C67.20563507 36.82145981 67.21595764 37.80307587 67.22659302 38.81443787 C67.22827473 49.28235422 65.63830439 57.771975 58.46875 65.69140625 C50.30912518 73.36992111 41.31042322 74.6815552 30.47485352 74.60668945 C20.49081742 74.21316083 13.42060188 70.85933436 6.4375 63.6875 C-0.04910308 56.36391587 -0.43112356 47.52757665 -0.29296875 38.18359375 C-0.28872391 37.08652603 -0.28447906 35.98945831 -0.28010559 34.85914612 C-0.26342927 31.38500522 -0.22579717 27.91146301 -0.1875 24.4375 C-0.17243891 22.06966989 -0.15875301 19.7018306 -0.14648438 17.33398438 C-0.11356187 11.55576196 -0.06185597 5.77798218 0 0 Z " fill="#24475D" transform="translate(608,421)"/>
<path d="M0 0 C0.8559375 0.35320312 1.711875 0.70640625 2.59375 1.0703125 C3.2228125 1.33585937 3.851875 1.60140625 4.5 1.875 C3.08192622 6.34738653 1.38695626 10.58646306 -0.5 14.875 C-3.5544894 14.41219858 -5.83876594 13.71171902 -8.64453125 12.359375 C-12.81744347 10.54266023 -16.6215532 10.39373859 -21.125 10.4375 C-21.86234375 10.41751953 -22.5996875 10.39753906 -23.359375 10.37695312 C-27.10008511 10.38030502 -29.2919727 10.74457451 -32.484375 12.74609375 C-34.67677653 14.71284862 -34.67677653 14.71284862 -35.125 17.375 C-34.19644795 21.0892082 -32.75163154 21.81735801 -29.5 23.875 C-24.64189566 25.37191883 -19.64516891 26.31778095 -14.66601562 27.32226562 C-7.12101477 29.0110213 -1.31391465 31.69333139 4.5 36.875 C7.70279636 41.96179422 8.392153 46.99490071 7.5 52.875 C5.29003022 60.08371094 0.71033702 64.14167637 -5.4375 68.1328125 C-15.64125225 73.34401454 -30.39638502 72.47550718 -41.12426758 69.22436523 C-45.74065291 67.64796762 -49.73239417 66.01620681 -53.5 62.875 C-52.89254603 58.01536821 -50.77241033 54.1344482 -48.5 49.875 C-46.02907187 50.8493269 -43.58236451 51.83719786 -41.16796875 52.9453125 C-35.42685169 55.38641739 -30.30132659 56.27151762 -24.125 56.3125 C-23.10829224 56.32724365 -23.10829224 56.32724365 -22.07104492 56.34228516 C-17.74330873 56.26825174 -14.9263079 55.53919456 -11.5 52.875 C-10.25598722 50.48891389 -10.25598722 50.48891389 -10.5 47.875 C-13.91022528 42.88110885 -19.07838618 42.54730424 -24.625 41.4375 C-44.35329486 37.09505771 -44.35329486 37.09505771 -50.5 27.875 C-53.15566351 23.06951364 -53.12226366 18.10337778 -52.10546875 12.828125 C-50.04253627 5.96055624 -45.292141 2.25122144 -39.38671875 -1.44921875 C-27.49991242 -7.30023741 -11.76965901 -4.90402459 0 0 Z " fill="#25475E" transform="translate(1269.5,424.125)"/>
<path d="M0 0 C-8.47289426 29.65512991 -31.25573803 69.24347185 -54 90 C-54.66 90 -55.32 90 -56 90 C-56.20896154 82.54193139 -56.36865359 75.08449802 -56.46630955 67.62409019 C-56.51319394 64.15930854 -56.57671652 60.6965355 -56.67895508 57.23291016 C-56.7958773 53.24666817 -56.83919763 49.26122571 -56.87890625 45.2734375 C-56.92535782 44.03572601 -56.97180939 42.79801453 -57.01966858 41.52279663 C-57.02459553 33.10983249 -57.02459553 33.10983249 -54.09922791 29.94110107 C-51.79097674 28.37864575 -49.52463319 27.17401633 -47 26 C-45.45037702 25.10517586 -43.90648694 24.20027631 -42.37109375 23.28125 C-40.72831368 22.35106713 -39.08370546 21.4241072 -37.4375 20.5 C-31.3877001 17.08009309 -25.35626615 13.63482392 -19.3671875 10.109375 C-18.2747876 9.46677734 -17.1823877 8.82417969 -16.05688477 8.16210938 C-13.91736035 6.90116008 -11.77977826 5.63690851 -9.64428711 4.36914062 C-8.67499268 3.79873047 -7.70569824 3.22832031 -6.70703125 2.640625 C-5.8456958 2.13047852 -4.98436035 1.62033203 -4.09692383 1.09472656 C-2 0 -2 0 0 0 Z " fill="#95C8E5" transform="translate(381,307)"/>
<path d="M0 0 C4.15485438 1.26793839 7.72203038 2.82174912 11.46484375 5.01953125 C13.02017822 5.92602417 13.02017822 5.92602417 14.60693359 6.85083008 C15.70602051 7.49818115 16.80510742 8.14553223 17.9375 8.8125 C19.67157779 9.82369747 21.40566486 10.83487977 23.14050293 11.84477234 C24.32451634 12.53406179 25.50818934 13.2239363 26.69152832 13.91438293 C32.72382459 17.43141418 38.79454378 20.87947059 44.875 24.3125 C45.83656006 24.85688721 46.79812012 25.40127441 47.78881836 25.9621582 C51.49269449 28.05309379 55.18056161 30.12609821 59 32 C57.82432041 35.52703877 57.29235256 35.68378704 54.1328125 37.33984375 C52.93615967 37.97188721 52.93615967 37.97188721 51.71533203 38.61669922 C50.86052246 39.05256348 50.00571289 39.48842773 49.125 39.9375 C48.25601074 40.38625488 47.38702148 40.83500977 46.49169922 41.29736328 C40.46141503 44.36595536 34.47810285 47.01869118 28 49 C26.94425781 49.34546875 25.88851563 49.6909375 24.80078125 50.046875 C15.79506949 52.93372337 7.49249075 55.13857651 -2 55 C-2.10842563 41.51185206 -2.06428883 28.04319511 -1.5625 14.5625 C-1.52326416 13.4502002 -1.48402832 12.33790039 -1.44360352 11.19189453 C-1.40162842 10.1604834 -1.35965332 9.12907227 -1.31640625 8.06640625 C-1.27974854 7.15834229 -1.24309082 6.25027832 -1.20532227 5.31469727 C-1 3 -1 3 0 0 Z " fill="#86A87B" transform="translate(484,360)"/>
<path d="M0 0 C0.66 0 1.32 0 2 0 C2 4.95 2 9.9 2 15 C3.423125 15.2475 4.84625 15.495 6.3125 15.75 C12.11458674 16.89547635 17.5041881 18.84764781 23 21 C23 21.66 23 22.32 23 23 C21.33710938 23.19916016 21.33710938 23.19916016 19.640625 23.40234375 C18.1770673 23.58059757 16.71352651 23.75899028 15.25 23.9375 C14.52039063 24.02451172 13.79078125 24.11152344 13.0390625 24.20117188 C9.60556122 24.62255612 6.36259528 25.15935118 3 26 C2.67 37.22 2.34 48.44 2 60 C-1.68966004 59.26206799 -3.90087306 58.74057989 -7.1171875 57.1796875 C-7.88119873 56.81286865 -8.64520996 56.4460498 -9.43237305 56.06811523 C-10.23843994 55.67438721 -11.04450684 55.28065918 -11.875 54.875 C-13.58702201 54.05032942 -15.29926409 53.22611554 -17.01171875 52.40234375 C-17.85782715 51.9935498 -18.70393555 51.58475586 -19.57568359 51.16357422 C-22.33258922 49.84037057 -25.10371335 48.55101854 -27.88085938 47.27099609 C-30.92881729 45.86481659 -33.9655481 44.43501554 -37 43 C-37.71978027 42.66049316 -38.43956055 42.32098633 -39.18115234 41.97119141 C-41.41830121 40.90920793 -43.64740575 39.83186074 -45.875 38.75 C-46.57197998 38.42056396 -47.26895996 38.09112793 -47.98706055 37.75170898 C-49.69775891 36.91087182 -51.35485598 35.96280693 -53 35 C-53.495 33.515 -53.495 33.515 -54 32 C-53.01902344 31.45472656 -52.03804687 30.90945313 -51.02734375 30.34765625 C-43.65078026 26.23213547 -36.32709118 22.05036454 -29.10083008 17.67602539 C-22.15323682 13.47293594 -15.1510666 9.36268104 -8.14794922 5.25292969 C-7.2354541 4.71571289 -6.32295898 4.17849609 -5.3828125 3.625 C-4.56184082 3.14289063 -3.74086914 2.66078125 -2.89501953 2.1640625 C-1.06126275 1.13873075 -1.06126275 1.13873075 0 0 Z " fill="#91B09A" transform="translate(287,360)"/>
<path d="M0 0 C0.66 0.33 1.32 0.66 2 1 C1.57589844 1.59425781 1.15179687 2.18851562 0.71484375 2.80078125 C-2.35563938 7.13994752 -5.35554695 11.50096129 -8.1875 16 C-11.1742509 20.74056047 -14.25671182 25.40812203 -17.375 30.0625 C-22.47091655 37.67318868 -27.4960953 45.3285593 -32.5 53 C-38.12003248 61.61591795 -43.77111158 70.20863948 -49.50976562 78.74609375 C-51.91131053 82.27967459 -51.91131053 82.27967459 -54 86 C-54.66 86 -55.32 86 -56 86 C-56.1365953 63.64250094 -55.82379372 41.34321379 -55 19 C-51.93688517 17.70973938 -49.0419112 16.69007586 -45.77734375 16.0703125 C-44.9977832 15.91715576 -44.21822266 15.76399902 -43.41503906 15.60620117 C-42.59745117 15.44740479 -41.77986328 15.2886084 -40.9375 15.125 C-26.99272423 12.27602467 -14.16812967 7.59934168 -1.6875 0.7265625 C-1.130625 0.48679687 -0.57375 0.24703125 0 0 Z " fill="#21465D" transform="translate(536,405)"/>
<path d="M0 0 C-0.4125 0.63164063 -0.825 1.26328125 -1.25 1.9140625 C-11.30054505 17.48343363 -20.10097201 33.37619587 -26 51 C-31.82410747 49.4228355 -36.5728737 46.47155711 -41.6875 43.375 C-43.632509 42.20782743 -45.57783722 41.04118669 -47.5234375 39.875 C-48.55952148 39.25238281 -49.59560547 38.62976563 -50.66308594 37.98828125 C-54.23195929 35.86178838 -57.8204558 33.77176341 -61.4140625 31.6875 C-63.27126036 30.60537613 -65.12789904 29.52230043 -66.98428345 28.43878174 C-68.20114686 27.73072718 -69.41971542 27.02559485 -70.63998413 26.32342529 C-72.354612 25.33584697 -74.0622413 24.33614782 -75.76953125 23.3359375 C-76.75542236 22.76407715 -77.74131348 22.1922168 -78.75708008 21.60302734 C-81 20 -81 20 -82 17 C-76.81267545 15.81173265 -71.62514725 14.62435756 -66.4375 13.4375 C-65.26542496 13.1693045 -65.26542496 13.1693045 -64.06967163 12.89569092 C-55.40057681 10.91253209 -46.73031957 8.93485426 -38.0546875 6.98046875 C-37.00140007 6.74314278 -37.00140007 6.74314278 -35.92683411 6.50102234 C-32.60252126 5.75233479 -29.27788875 5.00511912 -25.95288086 4.25952148 C-18.66445891 2.62269001 -18.66445891 2.62269001 -11.41796875 0.8125 C-7.38751553 -0.14559631 -4.11117778 -0.14682778 0 0 Z " fill="#90B09C" transform="translate(315,564)"/>
<path d="M0 0 C5.61 0 11.22 0 17 0 C17 19.47 17 38.94 17 59 C29.21 59 41.42 59 54 59 C54 63.62 54 68.24 54 73 C36.18 73 18.36 73 0 73 C0 48.91 0 24.82 0 0 Z " fill="#1F4359" transform="translate(994,421)"/>
<path d="M0 0 C5.9222618 3.11763887 9.02493306 7.11811927 11.84765625 12.97265625 C14.23261471 20.92251779 12.60298649 27.7911968 8.84765625 34.97265625 C5.41700652 39.10702901 1.61100159 41.59098358 -3.15234375 43.97265625 C-10.58599744 44.65553782 -17.38368153 45.13080706 -23.5390625 40.46484375 C-28.54963702 35.83036562 -31.74293622 31.45262026 -32.55859375 24.51953125 C-32.73655808 17.31197581 -32.68125293 11.66077232 -28.0078125 5.77734375 C-20.04764248 -1.96496898 -10.35958751 -4.4280543 0 0 Z " fill="#F9FAFB" transform="translate(737.15234375,436.02734375)"/>
<path d="M0 0 C9.71315114 3.81800475 19.11112193 8.42615369 28.57299805 12.8215332 C30.45911921 13.69754103 32.34575483 14.5724342 34.23242188 15.44726562 C35.44534333 16.01035026 36.65823507 16.57349891 37.87109375 17.13671875 C38.95318115 17.63905029 40.03526855 18.14138184 41.15014648 18.65893555 C43.4487715 19.74060669 45.72778708 20.86389354 48 22 C48 33.88 48 45.76 48 58 C43.45500321 54.21250268 40.73428278 51.63966708 37.375 47.0625 C33.80561418 42.28579179 30.09964999 37.68765876 26.1875 33.1875 C0 2.99765511 0 2.99765511 0 0 Z " fill="#457596" transform="translate(241,406)"/>
<path d="M0 0 C2.82360879 1.37236852 4.81234763 2.87697608 6.9375 5.1875 C5.54417426 8.55470387 3.9585714 10.1734524 0.9375 12.1875 C-0.5165625 11.1975 -0.5165625 11.1975 -2 10.1875 C-6.3226713 7.72366504 -10.18440501 7.4278717 -15.0625 8.1875 C-18.95435899 9.84361021 -20.49460437 11.3227748 -22.0625 15.1875 C-22.66118671 19.89924215 -22.37847162 24.14665232 -21 28.6875 C-18.34111089 32.11832466 -16.29773899 32.48162684 -12.0625 33.1875 C-8.03647826 33.53457084 -5.90085094 33.70647916 -2.4375 31.5625 C-0.0625 30.1875 -0.0625 30.1875 2.5625 30.75 C5.09360985 32.28198754 6.36561658 33.70557881 7.9375 36.1875 C0.6142205 42.51215048 -4.46842074 43.82735313 -14.1328125 43.5625 C-19.34305284 43.06530013 -22.32947288 41.78461593 -26.0625 38.1875 C-26.92101562 37.37345703 -26.92101562 37.37345703 -27.796875 36.54296875 C-33.24183862 30.79982855 -34.61889621 24.4655806 -34.44140625 16.6796875 C-33.5965995 11.1231235 -30.24230973 7.02517433 -26.125 3.375 C-17.9238131 -2.48299064 -9.55268893 -4.0583319 0 0 Z " fill="#2A4B62" transform="translate(714.0625,528.8125)"/>
<path d="M0 0 C3.3 0 6.6 0 10 0 C10 11.55 10 23.1 10 35 C17.26 35 24.52 35 32 35 C32 37.97 32 40.94 32 44 C21.44 44 10.88 44 0 44 C0 29.48 0 14.96 0 0 Z " fill="#2A4C62" transform="translate(646,528)"/>
<path d="M0 0 C3.3 0 6.6 0 10 0 C10 11.55 10 23.1 10 35 C16.93 35 23.86 35 31 35 C31 37.64 31 40.28 31 43 C20.77 43 10.54 43 0 43 C0 28.81 0 14.62 0 0 Z " fill="#22445A" transform="translate(609,528)"/>
<path d="M0 0 C4.03825066 -0.12406007 8.07575638 -0.21455045 12.11547852 -0.2746582 C13.48807102 -0.29972617 14.86053102 -0.33379082 16.23266602 -0.37719727 C18.21050696 -0.43817531 20.18934184 -0.46361009 22.16796875 -0.48828125 C23.35672607 -0.51446533 24.5454834 -0.54064941 25.77026367 -0.56762695 C29.95981063 0.16868695 31.41327341 1.69058659 34 5 C34.52208089 8.71982635 34.53562029 10.95694997 32.8125 14.3125 C29.05316207 17.81257325 25.06109017 18.2506443 20.078125 18.23046875 C18.97082031 18.22853516 17.86351562 18.22660156 16.72265625 18.22460938 C15.00369141 18.20624023 15.00369141 18.20624023 13.25 18.1875 C11.50783203 18.1865332 11.50783203 18.1865332 9.73046875 18.18554688 C1.14033565 18.14033565 1.14033565 18.14033565 0 17 C-0.07325168 14.13732433 -0.09238205 11.299281 -0.0625 8.4375 C-0.05798828 7.63119141 -0.05347656 6.82488281 -0.04882812 5.99414062 C-0.03700518 3.99606244 -0.01906914 1.99802217 0 0 Z " fill="#EEF1F2" transform="translate(1157,463)"/>
<path d="M0 0 C2.88030522 2.88030522 4.76308687 5.61267441 7 9 C8.42784261 10.94060377 9.87935921 12.86122058 11.33984375 14.77734375 C13.6099336 17.81659345 15.80143481 20.90861646 18 24 C15.21312902 25.84070559 12.41974873 27.67128178 9.625 29.5 C8.8309375 30.02464844 8.036875 30.54929687 7.21875 31.08984375 C6.45820313 31.58613281 5.69765625 32.08242188 4.9140625 32.59375 C4.2123291 33.05458984 3.5105957 33.51542969 2.78759766 33.99023438 C1 35 1 35 -1 35 C-1 30.38 -1 25.76 -1 21 C-2.77375 20.608125 -4.5475 20.21625 -6.375 19.8125 C-12.40833169 18.32208077 -17.59337338 16.02627552 -23 13 C-23 12.34 -23 11.68 -23 11 C-17.98391475 9.9823597 -13.21391694 9.88143566 -8.125 9.9375 C-7.34125 9.94201172 -6.5575 9.94652344 -5.75 9.95117188 C-3.83329986 9.96285907 -1.91663952 9.98079092 0 10 C0 6.7 0 3.4 0 0 Z " fill="#264B61" transform="translate(326,518)"/>
<path d="M0 0 C3.87575108 -0.1081605 7.74846959 -0.1874032 11.625 -0.25 C13.26662109 -0.30027344 13.26662109 -0.30027344 14.94140625 -0.3515625 C24.06585337 -0.46216186 24.06585337 -0.46216186 27.734375 1.734375 C30 4 30 4 30.7265625 6.21875 C30.69304687 6.9715625 30.65953125 7.724375 30.625 8.5 C30.61726563 9.2528125 30.60953125 10.005625 30.6015625 10.78125 C29.76907461 13.85172483 28.46836176 15.01275524 26 17 C23.15917969 17.45410156 23.15917969 17.45410156 19.921875 17.390625 C18.76171875 17.37773437 17.6015625 17.36484375 16.40625 17.3515625 C15.1996875 17.31804687 13.993125 17.28453125 12.75 17.25 C10.91695312 17.22292969 10.91695312 17.22292969 9.046875 17.1953125 C6.03091545 17.14818813 3.01535881 17.07644572 0 17 C0 11.39 0 5.78 0 0 Z " fill="#EEF0F2" transform="translate(1157,434)"/>
<path d="M0 0 C0.66 0 1.32 0 2 0 C2.38671875 0.97839844 2.7734375 1.95679688 3.171875 2.96484375 C3.69750412 4.28922631 4.22357526 5.61343349 4.75 6.9375 C5.15726318 7.96278809 5.15726318 7.96278809 5.57275391 9.00878906 C7.36498369 13.49201319 9.25754133 17.90606229 11.3359375 22.265625 C12 24 12 24 12 27 C4.74 27 -2.52 27 -10 27 C-9.228603 23.14301498 -8.41217319 20.26030444 -6.93359375 16.69921875 C-6.3293457 15.23452148 -6.3293457 15.23452148 -5.71289062 13.74023438 C-5.29201172 12.73283203 -4.87113281 11.72542969 -4.4375 10.6875 C-4.01275391 9.66076172 -3.58800781 8.63402344 -3.15039062 7.57617188 C-2.10429072 5.04907659 -1.05404084 2.52379106 0 0 Z " fill="#F0F2F4" transform="translate(912,438)"/>
<path d="M0 0 C2.74459458 2.38999197 3.91284377 4.71211005 5.26171875 8.0703125 C5.65810547 9.04871094 6.05449219 10.02710938 6.46289062 11.03515625 C7.06907227 12.56462891 7.06907227 12.56462891 7.6875 14.125 C8.10322266 15.15238281 8.51894531 16.17976563 8.94726562 17.23828125 C12 24.82750924 12 24.82750924 12 26 C4.74 26 -2.52 26 -10 26 C-9.2917805 21.75068298 -8.79352075 19.05648003 -7.1875 15.29296875 C-6.83429688 14.45958984 -6.48109375 13.62621094 -6.1171875 12.76757812 C-5.56417969 11.49043945 -5.56417969 11.49043945 -5 10.1875 C-4.44699219 8.88135742 -4.44699219 8.88135742 -3.8828125 7.54882812 C-1.14951105 1.14951105 -1.14951105 1.14951105 0 0 Z " fill="#F1F4F5" transform="translate(1091,439)"/>
<path d="M0 0 C0.763125 0.495 1.52625 0.99 2.3125 1.5 C-0.84064785 3.60209857 -1.54853081 3.7434761 -5.13671875 3.6953125 C-6.40805664 3.68564453 -6.40805664 3.68564453 -7.70507812 3.67578125 C-8.58615234 3.65902344 -9.46722656 3.64226562 -10.375 3.625 C-11.26767578 3.61597656 -12.16035156 3.60695313 -13.08007812 3.59765625 C-15.28282314 3.57409748 -17.48502588 3.54120329 -19.6875 3.5 C-18.6875 0.5 -18.6875 0.5 -16.9609375 -0.66796875 C-11.43033745 -2.69205434 -5.36109856 -2.18078586 0 0 Z " fill="#3D5E73" transform="translate(314.6875,455.5)"/>
<path d="M0 0 C1.49080078 0.02707031 1.49080078 0.02707031 3.01171875 0.0546875 C3.77097656 0.07789063 4.53023438 0.10109375 5.3125 0.125 C5.3125 1.115 5.3125 2.105 5.3125 3.125 C0.18330814 5.22928384 -4.2485835 5.34255666 -9.6875 5.125 C-7.93798051 -0.12355846 -4.97877546 -0.11714766 0 0 Z " fill="#9BB5AA" transform="translate(312.6875,395.875)"/>
<path d="M0 0 C3.45925163 1.2491742 6.14693203 2.67527795 9 5 C8.34 5.66 7.68 6.32 7 7 C3.17053157 5.54744301 1.87949705 3.57104439 0 0 Z " fill="#587D98" transform="translate(241,406)"/>
<path d="M0 0 C0 3 0 3 -1.375 4.6875 C-3 6 -3 6 -5 6 C-5.33 7.32 -5.66 8.64 -6 10 C-6.66 10 -7.32 10 -8 10 C-6.5682479 4.98886765 -4.01554307 3.05530451 0 0 Z " fill="#39586B" transform="translate(1227,425)"/>
<path d="M0 0 C0.66 0 1.32 0 2 0 C0.52631579 4.66666667 0.52631579 4.66666667 -1.875 6.1875 C-2.57625 6.455625 -3.2775 6.72375 -4 7 C-5.33722892 7.65881791 -6.6711444 8.32445207 -8 9 C-7.04270084 7.87411986 -6.08412105 6.7493285 -5.125 5.625 C-4.59132813 4.99851562 -4.05765625 4.37203125 -3.5078125 3.7265625 C-2.38567993 2.44163349 -1.20628025 1.20628025 0 0 Z " fill="#E6F1F8" transform="translate(410,344)"/>
<path d="M0 0 C2.97 0 5.94 0 9 0 C7.68 0.33 6.36 0.66 5 1 C5 1.66 5 2.32 5 3 C5.66 3.33 6.32 3.66 7 4 C2.25 3.125 2.25 3.125 0 2 C0 1.34 0 0.68 0 0 Z " fill="#203F55" transform="translate(303,529)"/>
<path d="M0 0 C0.66 0.33 1.32 0.66 2 1 C0.02 3.97 0.02 3.97 -2 7 C-2.66 6.67 -3.32 6.34 -4 6 C-4 5.34 -4 4.68 -4 4 C-4.66 3.67 -5.32 3.34 -6 3 C-4.03533587 1.93224776 -2.03144641 0.93446535 0 0 Z " fill="#406279" transform="translate(536,405)"/>
<path d="M0 0 C1.98 0.66 3.96 1.32 6 2 C6 2.66 6 3.32 6 4 C3.69 4 1.38 4 -1 4 C-0.67 2.68 -0.34 1.36 0 0 Z " fill="#A2B9AC" transform="translate(304,379)"/>
<path d="M0 0 C1.98 0 3.96 0 6 0 C6.33 1.32 6.66 2.64 7 4 C4.97954558 3.39816251 2.97888961 2.72693904 1 2 C0.67 1.34 0.34 0.68 0 0 Z " fill="#89A7A4" transform="translate(307,428)"/>
</svg>
